<svg xmlns="http://www.w3.org/2000/svg" viewBox="0 0 480 320" role="img" aria-labelledby="t"><title id="t">Café orders and messages gathered into one list</title><rect width="480" height="320" rx="24" fill="#f5f6f3"/><rect x="24" y="58" width="432" height="220" rx="18" fill="#ffffff" stroke="#e1e6e8" stroke-width="1.5"/><text x="42" y="88" font-family="system-ui,sans-serif" font-size="13" font-weight="700" fill="#56666f" text-anchor="start">One list, whatever the channel</text><rect x="36" y="104" width="408" height="36" rx="10" fill="#f5f6f3"/><text x="50" y="127" font-family="system-ui,sans-serif" font-size="12.5" font-weight="600" fill="#13293a" text-anchor="start">Cake order · website</text><rect x="324" y="112" width="108" height="20" rx="10" fill="#c7ea6e"/><text x="378" y="126" font-family="system-ui,sans-serif" font-size="11" font-weight="700" fill="#13293a" text-anchor="middle">Replied</text><rect x="36" y="148" width="408" height="36" rx="10" fill="#f5f6f3"/><text x="50" y="171" font-family="system-ui,sans-serif" font-size="12.5" font-weight="600" fill="#13293a" text-anchor="start">Table for 6 · Instagram</text><rect x="324" y="156" width="108" height="20" rx="10" fill="#c7ea6e"/><text x="378" y="170" font-family="system-ui,sans-serif" font-size="11" font-weight="700" fill="#13293a" text-anchor="middle">Booked</text><rect x="36" y="192" width="408" height="36" rx="10" fill="#f5f6f3"/><text x="50" y="215" font-family="system-ui,sans-serif" font-size="12.5" font-weight="600" fill="#13293a" text-anchor="start">Allergy question · email</text><rect x="324" y="200" width="108" height="20" rx="10" fill="#ffe1d6"/><text x="378" y="214" font-family="system-ui,sans-serif" font-size="11" font-weight="700" fill="#13293a" text-anchor="middle">Needs reply</text><rect x="36" y="236" width="408" height="36" rx="10" fill="#f5f6f3"/><text x="50" y="259" font-family="system-ui,sans-serif" font-size="12.5" font-weight="600" fill="#13293a" text-anchor="start">Catering · phone</text><rect x="324" y="244" width="108" height="20" rx="10" fill="#c7ea6e"/><text x="378" y="258" font-family="system-ui,sans-serif" font-size="11" font-weight="700" fill="#13293a" text-anchor="middle">Called back</text><text x="24" y="36" font-family="system-ui,sans-serif" font-size="14" font-weight="700" fill="#13405a" text-anchor="start">Orders and messages</text><text x="460" y="306" font-family="ui-monospace,monospace" font-size="10" fill="#56666f" text-anchor="end">ILLUSTRATIVE ONLY</text></svg>